<svg xmlns="http://www.w3.org/2000/svg" viewBox="0 0 400 400" width="400" height="400" role="img" aria-label="دستگاه تصفیه آب زیرسینکی">
    <rect width="400" height="400" fill="#fbfbfa"/>
    <ellipse cx="200" cy="322" rx="122" ry="12" fill="#ededea"/>
    <!-- بدنه و فیلترها -->
    <rect x="112" y="150" width="176" height="26" rx="9" fill="#f4f4f2" stroke="#d5d5d0" stroke-width="3"/>
    <g fill="#ffffff" stroke="#c9c9c3" stroke-width="3">
        <rect x="126" y="176" width="34" height="118" rx="12"/>
        <rect x="172" y="176" width="34" height="118" rx="12"/>
        <rect x="218" y="176" width="34" height="118" rx="12"/>
    </g>
    <g stroke="#e6e6e1" stroke-width="3" stroke-linecap="round">
        <path d="M134 200h18M134 216h18M134 232h18"/>
        <path d="M180 200h18M180 216h18M180 232h18"/>
        <path d="M226 200h18M226 216h18M226 232h18"/>
    </g>
    <!-- مخزن -->
    <rect x="264" y="196" width="42" height="98" rx="16" fill="#f7f7f5" stroke="#d5d5d0" stroke-width="3"/>
    <!-- شیر آب -->
    <path d="M96 122h60a10 10 0 0 1 10 10v10H96z" fill="#ffffff" stroke="#c9c9c3" stroke-width="3" stroke-linejoin="round"/>
    <path d="M122 122V98h18v24" fill="none" stroke="#c9c9c3" stroke-width="3" stroke-linejoin="round"/>
    <path d="M86 142h20" stroke="#c9c9c3" stroke-width="3" stroke-linecap="round"/>
    <!-- قطره -->
    <path d="M166 300c0 0-7 9-7 14a7 7 0 0 0 14 0c0-5-7-14-7-14z" fill="#dfeae8" stroke="#c9c9c3" stroke-width="2.5"/>
</svg>
